<svg id="Группа_4" data-name="Группа 4" xmlns="http://www.w3.org/2000/svg" width="250" height="250" viewBox="0 0 500 500">
  <defs>
    <style>
      .cls-1, .cls-4, .cls-5 {
        fill-rule: evenodd;
      }

      .cls-2, .cls-4 {
        fill: red;
      }

      .cls-3 {
        fill: #d0d0d0;
      }

      .cls-5 {
        fill: #fe6d39;
      }
    </style>
  </defs>
  <rect id="Прямоугольник_4" data-name="Прямоугольник 4" x="208" y="300" width="8" height="100"/>
  <rect id="Прямоугольник_4_копия" data-name="Прямоугольник 4 копия" x="284" y="301" width="8" height="100"/>
  <rect id="Прямоугольник_4_копия_2" data-name="Прямоугольник 4 копия 2" x="246" y="301" width="8" height="100"/>
  <path id="Прямоугольник_5" data-name="Прямоугольник 5" class="cls-1" d="M220.921,214.93l4.96,0.632-10.912,85.571-4.96-.633Z"/>
  <path id="Прямоугольник_5_копия" data-name="Прямоугольник 5 копия" class="cls-1" d="M278.993,214.992l-5,.631,11,85.384,5-.631Z"/>
  <rect id="Прямоугольник_7" data-name="Прямоугольник 7" x="172" y="203" width="152" height="6"/>
  <path id="Прямоугольник_6" data-name="Прямоугольник 6" class="cls-1" d="M320,50l56,250-56,50V50Z"/>
  <path id="Прямоугольник_6_копия" data-name="Прямоугольник 6 копия" class="cls-1" d="M178,51L122,301l56,50V51Z"/>
  <ellipse id="Эллипс_5" data-name="Эллипс 5" class="cls-2" cx="250.5" cy="400.5" rx="57.5" ry="6.5"/>
  <ellipse id="Эллипс_5_копия" data-name="Эллипс 5 копия" class="cls-2" cx="250.5" cy="350.5" rx="57.5" ry="6.5"/>
  <ellipse id="Эллипс_5_копия_2" data-name="Эллипс 5 копия 2" class="cls-2" cx="250.5" cy="300.5" rx="57.5" ry="6.5"/>
  <circle id="Эллипс_6" data-name="Эллипс 6" class="cls-3" cx="250" cy="250" r="8"/>
  <path id="Многоугольник_3" data-name="Многоугольник 3" class="cls-4" d="M250,180.066l37.028,26.9L272.885,250.5h-45.77l-14.143-43.529Z"/>
  <g id="Группа_1_копия_7" data-name="Группа 1 копия 7">
    <path id="Фигура_1" data-name="Фигура 1" class="cls-5" d="M250.616,178.843c3.01-.063,5.948-3.293,5.877-6.461s-6.232-9.379-6.3-12.547c0.071,3.168-5.806,9.629-5.735,12.8S247.606,178.905,250.616,178.843Z"/>
    <path id="Фигура_1_копия" data-name="Фигура 1 копия" class="cls-4" d="M249.632,177.209a4.276,4.276,0,0,0,3.791-4.157c-0.046-2.038-4.019-6.034-4.065-8.072,0.046,2.038-3.746,6.2-3.7,8.233A4.294,4.294,0,0,0,249.632,177.209Z"/>
  </g>
</svg>
