<svg id="Группа_6" data-name="Группа 6" xmlns="http://www.w3.org/2000/svg" width="250" height="250" viewBox="0 0 500 500">
  <defs>
    <style>
      .cls-1, .cls-6 {
        fill: #fe6d39;
      }

      .cls-1, .cls-2, .cls-8, .cls-9 {
        fill-rule: evenodd;
      }

      .cls-2 {
        fill: red;
      }

      .cls-3 {
        fill: #0600ff;
      }

      .cls-4 {
        fill: #d9d9d9;
      }

      .cls-5, .cls-8 {
        fill: #878787;
      }

      .cls-7, .cls-9 {
        fill: #fff;
      }
    </style>
  </defs>
  <g id="Группа_1_копия_8" data-name="Группа 1 копия 8">
    <path id="Фигура_1" data-name="Фигура 1" class="cls-1" d="M150,249.869c-0.063-3-3.293-5.933-6.461-5.862s-9.379,6.216-12.547,6.286c3.168-.07,9.629,5.792,12.8,5.721S150.062,252.871,150,249.869Z"/>
    <path id="Фигура_1_копия" data-name="Фигура 1 копия" class="cls-2" d="M148.365,250.85a4.273,4.273,0,0,0-4.157-3.781c-2.038.046-6.033,4.009-8.071,4.054,2.038-.045,6.194,3.736,8.232,3.691A4.289,4.289,0,0,0,148.365,250.85Z"/>
  </g>
  <g id="Группа_1_копия_9" data-name="Группа 1 копия 9">
    <path id="Фигура_1-2" data-name="Фигура 1" class="cls-1" d="M350,250.131c0.063,3,3.293,5.933,6.461,5.862s9.379-6.216,12.547-6.286c-3.168.07-9.629-5.792-12.8-5.721S349.938,247.129,350,250.131Z"/>
    <path id="Фигура_1_копия-2" data-name="Фигура 1 копия" class="cls-2" d="M351.635,249.15a4.273,4.273,0,0,0,4.157,3.781c2.038-.046,6.033-4.009,8.071-4.054-2.038.045-6.194-3.736-8.232-3.691A4.289,4.289,0,0,0,351.635,249.15Z"/>
  </g>
  <circle id="Эллипс_7" data-name="Эллипс 7" cx="250" cy="250" r="100"/>
  <circle id="Эллипс_12" data-name="Эллипс 12" class="cls-3" cx="250" cy="300" r="41"/>
  <circle id="Эллипс_13" data-name="Эллипс 13" class="cls-4" cx="250" cy="322" r="18"/>
  <rect id="Прямоугольник_9" data-name="Прямоугольник 9" x="247" y="101" width="6" height="58"/>
  <rect id="Прямоугольник_8" data-name="Прямоугольник 8" x="248" y="255" width="4" height="89"/>
  <rect id="Прямоугольник_8_копия" data-name="Прямоугольник 8 копия" x="228" y="255" width="4" height="89"/>
  <rect id="Прямоугольник_8_копия_2" data-name="Прямоугольник 8 копия 2" x="268" y="255" width="4" height="89"/>
  <rect id="Прямоугольник_8_копия_3" data-name="Прямоугольник 8 копия 3" x="205" y="283" width="89" height="4"/>
  <circle id="Эллипс_14" data-name="Эллипс 14" class="cls-4" cx="250" cy="101" r="9"/>
  <g id="Группа_5" data-name="Группа 5">
    <circle id="Эллипс_9" data-name="Эллипс 9" class="cls-5" cx="200.141" cy="199.859" r="16.203"/>
    <circle id="Эллипс_11" data-name="Эллипс 11" class="cls-6" cx="198.984" cy="201.031" r="2.266"/>
    <circle id="Эллипс_10" data-name="Эллипс 10" class="cls-7" cx="200.141" cy="199.859" r="16.203"/>
  </g>
  <g id="Группа_5_копия" data-name="Группа 5 копия">
    <path id="Эллипс_9-2" data-name="Эллипс 9" class="cls-8" d="M291.456,187.953a18.992,18.992,0,0,1,25.949,6.929c-13.384,12.524-15.793,13.772-32.878,19.02A18.992,18.992,0,0,1,291.456,187.953Z"/>
    <path id="Эллипс_11-2" data-name="Эллипс 11" class="cls-1" d="M298.684,200.447a2.279,2.279,0,1,1-.832,3.114A2.279,2.279,0,0,1,298.684,200.447Z"/>
    <path id="Эллипс_10-2" data-name="Эллипс 10" class="cls-9" d="M291.456,187.953a18.992,18.992,0,0,1,25.949,6.929c-16.264,6.045-19.919,8.014-32.878,19.02A18.992,18.992,0,0,1,291.456,187.953Z"/>
  </g>
</svg>
