<svg id="Группа_9" data-name="Группа 9" xmlns="http://www.w3.org/2000/svg" width="250" height="250" viewBox="0 0 500 500">
  <defs>
    <style>
      .cls-1 {
        fill: #fe6d39;
      }

      .cls-1, .cls-2, .cls-3 {
        fill-rule: evenodd;
      }

      .cls-2, .cls-4 {
        fill: red;
      }

      .cls-5 {
        fill: #fff;
      }
    </style>
  </defs>
  <g id="Группа_1_копия_10" data-name="Группа 1 копия 10">
    <path id="Фигура_1" data-name="Фигура 1" class="cls-1" d="M303,251.131c0.063,3,3.293,5.933,6.461,5.862s9.379-6.216,12.547-6.286c-3.168.07-9.629-5.792-12.8-5.721S302.938,248.129,303,251.131Z"/>
    <path id="Фигура_1_копия" data-name="Фигура 1 копия" class="cls-2" d="M304.635,250.15a4.273,4.273,0,0,0,4.157,3.781c2.038-.046,6.033-4.009,8.071-4.054-2.038.045-6.194-3.736-8.232-3.691A4.289,4.289,0,0,0,304.635,250.15Z"/>
  </g>
  <g id="Группа_1_копия_11" data-name="Группа 1 копия 11">
    <path id="Фигура_1-2" data-name="Фигура 1" class="cls-1" d="M199,249.869c-0.063-3-3.293-5.933-6.461-5.862s-9.379,6.216-12.547,6.286c3.168-.07,9.629,5.792,12.8,5.721S199.062,252.871,199,249.869Z"/>
    <path id="Фигура_1_копия-2" data-name="Фигура 1 копия" class="cls-2" d="M197.365,250.85a4.273,4.273,0,0,0-4.157-3.781c-2.038.046-6.033,4.009-8.071,4.054,2.038-.045,6.194,3.736,8.232,3.691A4.289,4.289,0,0,0,197.365,250.85Z"/>
  </g>
  <g id="Группа_1_копия_12" data-name="Группа 1 копия 12">
    <path id="Фигура_1-3" data-name="Фигура 1" class="cls-1" d="M250.869,303c-3,.063-5.933,3.293-5.862,6.461s6.216,9.379,6.286,12.547c-0.07-3.168,5.792-9.629,5.721-12.8S253.871,302.938,250.869,303Z"/>
    <path id="Фигура_1_копия-3" data-name="Фигура 1 копия" class="cls-2" d="M251.85,304.635a4.273,4.273,0,0,0-3.781,4.157c0.046,2.038,4.009,6.033,4.054,8.071-0.045-2.038,3.736-6.194,3.691-8.232A4.289,4.289,0,0,0,251.85,304.635Z"/>
  </g>
  <g id="Группа_1_копия_13" data-name="Группа 1 копия 13">
    <path id="Фигура_1-4" data-name="Фигура 1" class="cls-1" d="M252.131,199c3-.063,5.933-3.293,5.862-6.461s-6.216-9.379-6.286-12.547c0.07,3.168-5.792,9.629-5.721,12.8S249.129,199.062,252.131,199Z"/>
    <path id="Фигура_1_копия-4" data-name="Фигура 1 копия" class="cls-2" d="M251.15,197.365a4.273,4.273,0,0,0,3.781-4.157c-0.046-2.038-4.009-6.033-4.054-8.071,0.045,2.038-3.736,6.194-3.691,8.232A4.289,4.289,0,0,0,251.15,197.365Z"/>
  </g>
  <path id="Прямоугольник_12" data-name="Прямоугольник 12" class="cls-3" d="M164,153.46L347.141,336.6l-9.9,9.9L154.1,163.359Z"/>
  <path id="Прямоугольник_12_копия_6" data-name="Прямоугольник 12 копия 6" class="cls-3" d="M153.991,337.1L337.1,154.016l9.9,9.9L163.889,346.993Z"/>
  <circle id="Эллипс_15" data-name="Эллипс 15" cx="250" cy="250" r="50"/>
  <circle id="Эллипс_16" data-name="Эллипс 16" class="cls-4" cx="250" cy="250" r="43"/>
  <g id="Группа_8" data-name="Группа 8">
    <rect id="Прямоугольник_10" data-name="Прямоугольник 10" x="100" y="101" width="99" height="99"/>
    <rect id="Прямоугольник_11" data-name="Прямоугольник 11" class="cls-5" x="109" y="109" width="82" height="82"/>
    <g id="Группа_7" data-name="Группа 7">
      <rect id="Прямоугольник_12_копия" data-name="Прямоугольник 12 копия" x="122" y="108" width="3" height="85"/>
      <rect id="Прямоугольник_12_копия_2" data-name="Прямоугольник 12 копия 2" x="138" y="108" width="3" height="85"/>
      <rect id="Прямоугольник_12_копия_4" data-name="Прямоугольник 12 копия 4" x="145" y="108" width="3" height="85"/>
      <rect id="Прямоугольник_12_копия_5" data-name="Прямоугольник 12 копия 5" x="153" y="108" width="3" height="85"/>
      <rect id="Прямоугольник_12_копия_3" data-name="Прямоугольник 12 копия 3" x="160" y="108" width="3" height="85"/>
      <rect id="Прямоугольник_12_копия_3-2" data-name="Прямоугольник 12 копия 3" x="176" y="108" width="3" height="85"/>
    </g>
    <g id="Группа_7_копия" data-name="Группа 7 копия">
      <rect id="Прямоугольник_12_копия-2" data-name="Прямоугольник 12 копия" x="108" y="122" width="85" height="3"/>
      <rect id="Прямоугольник_12_копия_2-2" data-name="Прямоугольник 12 копия 2" x="108" y="138" width="85" height="3"/>
      <rect id="Прямоугольник_12_копия_4-2" data-name="Прямоугольник 12 копия 4" x="108" y="145" width="85" height="3"/>
      <rect id="Прямоугольник_12_копия_5-2" data-name="Прямоугольник 12 копия 5" x="108" y="153" width="85" height="3"/>
      <rect id="Прямоугольник_12_копия_3-3" data-name="Прямоугольник 12 копия 3" x="108" y="160" width="85" height="3"/>
      <rect id="Прямоугольник_12_копия_3-4" data-name="Прямоугольник 12 копия 3" x="108" y="176" width="85" height="3"/>
    </g>
  </g>
  <g id="Группа_8_копия" data-name="Группа 8 копия">
    <rect id="Прямоугольник_10-2" data-name="Прямоугольник 10" x="101" y="301" width="99" height="99"/>
    <rect id="Прямоугольник_11-2" data-name="Прямоугольник 11" class="cls-5" x="110" y="309" width="82" height="82"/>
    <g id="Группа_7-2" data-name="Группа 7">
      <rect id="Прямоугольник_12_копия-3" data-name="Прямоугольник 12 копия" x="123" y="308" width="3" height="85"/>
      <rect id="Прямоугольник_12_копия_2-3" data-name="Прямоугольник 12 копия 2" x="139" y="308" width="3" height="85"/>
      <rect id="Прямоугольник_12_копия_4-3" data-name="Прямоугольник 12 копия 4" x="146" y="308" width="3" height="85"/>
      <rect id="Прямоугольник_12_копия_5-3" data-name="Прямоугольник 12 копия 5" x="154" y="308" width="3" height="85"/>
      <rect id="Прямоугольник_12_копия_3-5" data-name="Прямоугольник 12 копия 3" x="161" y="308" width="3" height="85"/>
      <rect id="Прямоугольник_12_копия_3-6" data-name="Прямоугольник 12 копия 3" x="177" y="308" width="3" height="85"/>
    </g>
    <g id="Группа_7_копия-2" data-name="Группа 7 копия">
      <rect id="Прямоугольник_12_копия-4" data-name="Прямоугольник 12 копия" x="109" y="322" width="85" height="3"/>
      <rect id="Прямоугольник_12_копия_2-4" data-name="Прямоугольник 12 копия 2" x="109" y="338" width="85" height="3"/>
      <rect id="Прямоугольник_12_копия_4-4" data-name="Прямоугольник 12 копия 4" x="109" y="345" width="85" height="3"/>
      <rect id="Прямоугольник_12_копия_5-4" data-name="Прямоугольник 12 копия 5" x="109" y="353" width="85" height="3"/>
      <rect id="Прямоугольник_12_копия_3-7" data-name="Прямоугольник 12 копия 3" x="109" y="360" width="85" height="3"/>
      <rect id="Прямоугольник_12_копия_3-8" data-name="Прямоугольник 12 копия 3" x="109" y="376" width="85" height="3"/>
    </g>
  </g>
  <g id="Группа_8_копия_2" data-name="Группа 8 копия 2">
    <rect id="Прямоугольник_10-3" data-name="Прямоугольник 10" x="300" y="100" width="99" height="99"/>
    <rect id="Прямоугольник_11-3" data-name="Прямоугольник 11" class="cls-5" x="309" y="108" width="82" height="82"/>
    <g id="Группа_7-3" data-name="Группа 7">
      <rect id="Прямоугольник_12_копия-5" data-name="Прямоугольник 12 копия" x="322" y="107" width="3" height="85"/>
      <rect id="Прямоугольник_12_копия_2-5" data-name="Прямоугольник 12 копия 2" x="338" y="107" width="3" height="85"/>
      <rect id="Прямоугольник_12_копия_4-5" data-name="Прямоугольник 12 копия 4" x="345" y="107" width="3" height="85"/>
      <rect id="Прямоугольник_12_копия_5-5" data-name="Прямоугольник 12 копия 5" x="353" y="107" width="3" height="85"/>
      <rect id="Прямоугольник_12_копия_3-9" data-name="Прямоугольник 12 копия 3" x="360" y="107" width="3" height="85"/>
      <rect id="Прямоугольник_12_копия_3-10" data-name="Прямоугольник 12 копия 3" x="376" y="107" width="3" height="85"/>
    </g>
    <g id="Группа_7_копия-3" data-name="Группа 7 копия">
      <rect id="Прямоугольник_12_копия-6" data-name="Прямоугольник 12 копия" x="308" y="121" width="85" height="3"/>
      <rect id="Прямоугольник_12_копия_2-6" data-name="Прямоугольник 12 копия 2" x="308" y="137" width="85" height="3"/>
      <rect id="Прямоугольник_12_копия_4-6" data-name="Прямоугольник 12 копия 4" x="308" y="144" width="85" height="3"/>
      <rect id="Прямоугольник_12_копия_5-6" data-name="Прямоугольник 12 копия 5" x="308" y="152" width="85" height="3"/>
      <rect id="Прямоугольник_12_копия_3-11" data-name="Прямоугольник 12 копия 3" x="308" y="159" width="85" height="3"/>
      <rect id="Прямоугольник_12_копия_3-12" data-name="Прямоугольник 12 копия 3" x="308" y="175" width="85" height="3"/>
    </g>
  </g>
  <g id="Группа_8_копия_3" data-name="Группа 8 копия 3">
    <rect id="Прямоугольник_10-4" data-name="Прямоугольник 10" x="301" y="300" width="99" height="99"/>
    <rect id="Прямоугольник_11-4" data-name="Прямоугольник 11" class="cls-5" x="310" y="308" width="82" height="82"/>
    <g id="Группа_7-4" data-name="Группа 7">
      <rect id="Прямоугольник_12_копия-7" data-name="Прямоугольник 12 копия" x="323" y="307" width="3" height="85"/>
      <rect id="Прямоугольник_12_копия_2-7" data-name="Прямоугольник 12 копия 2" x="339" y="307" width="3" height="85"/>
      <rect id="Прямоугольник_12_копия_4-7" data-name="Прямоугольник 12 копия 4" x="346" y="307" width="3" height="85"/>
      <rect id="Прямоугольник_12_копия_5-7" data-name="Прямоугольник 12 копия 5" x="354" y="307" width="3" height="85"/>
      <rect id="Прямоугольник_12_копия_3-13" data-name="Прямоугольник 12 копия 3" x="361" y="307" width="3" height="85"/>
      <rect id="Прямоугольник_12_копия_3-14" data-name="Прямоугольник 12 копия 3" x="377" y="307" width="3" height="85"/>
    </g>
    <g id="Группа_7_копия-4" data-name="Группа 7 копия">
      <rect id="Прямоугольник_12_копия-8" data-name="Прямоугольник 12 копия" x="309" y="321" width="85" height="3"/>
      <rect id="Прямоугольник_12_копия_2-8" data-name="Прямоугольник 12 копия 2" x="309" y="337" width="85" height="3"/>
      <rect id="Прямоугольник_12_копия_4-8" data-name="Прямоугольник 12 копия 4" x="309" y="344" width="85" height="3"/>
      <rect id="Прямоугольник_12_копия_5-8" data-name="Прямоугольник 12 копия 5" x="309" y="352" width="85" height="3"/>
      <rect id="Прямоугольник_12_копия_3-15" data-name="Прямоугольник 12 копия 3" x="309" y="359" width="85" height="3"/>
      <rect id="Прямоугольник_12_копия_3-16" data-name="Прямоугольник 12 копия 3" x="309" y="375" width="85" height="3"/>
    </g>
  </g>
</svg>
