<svg id="Группа_2" data-name="Группа 2" xmlns="http://www.w3.org/2000/svg" width="250" height="250" viewBox="0 0 500 500">
  <defs>
    <style>
      .cls-1, .cls-2, .cls-3, .cls-4, .cls-5 {
        fill-rule: evenodd;
      }

      .cls-2 {
        fill: #fe6d39;
      }

      .cls-3 {
        fill: red;
      }

      .cls-4 {
        fill: #0600ff;
      }

      .cls-5 {
        fill: #d9d9d9;
      }
    </style>
  </defs>
  <path id="Прямоугольник_2" data-name="Прямоугольник 2" class="cls-1" d="M289.3,195.1l-52.059-13.988,2.583-9.667,52.059,13.988Z"/>
  <path id="Прямоугольник_2_копия" data-name="Прямоугольник 2 копия" class="cls-1" d="M189.1,290.766l-13.949-52.2,9.641-2.59,13.949,52.2Z"/>
  <circle id="Эллипс_1" data-name="Эллипс 1" cx="197.641" cy="287.406" r="15.141"/>
  <circle id="Эллипс_1_копия" data-name="Эллипс 1 копия" cx="294.453" cy="191.328" r="15.141"/>
  <path id="Многоугольник_1" data-name="Многоугольник 1" class="cls-1" d="M150.289,149.744l81.944-13.014L269.9,210.855l-58.666,58.826-73.922-37.769Z"/>
  <g id="Группа_1" data-name="Группа 1">
    <path id="Фигура_1" data-name="Фигура 1" class="cls-2" d="M138.177,232.046a6.621,6.621,0,0,0-8.387-2.4c-2.694,1.5-5.083,9.914-7.777,11.418,2.694-1.5,11.081.892,13.775-.612A6.658,6.658,0,0,0,138.177,232.046Z"/>
    <path id="Фигура_1_копия" data-name="Фигура 1 копия" class="cls-3" d="M137.624,232.32a4.266,4.266,0,0,0-5.4-1.551c-1.734.968-3.265,6.387-5,7.355,1.734-.968,7.134.583,8.868-0.385A4.29,4.29,0,0,0,137.624,232.32Z"/>
  </g>
  <g id="Группа_1_копия" data-name="Группа 1 копия">
    <path id="Фигура_1-2" data-name="Фигура 1" class="cls-2" d="M232.655,136.25a6.728,6.728,0,0,0,7.3-4.881c0.634-3.039-4.134-10.317-3.5-13.357-0.634,3.04-7.938,7.921-8.572,10.96A6.568,6.568,0,0,0,232.655,136.25Z"/>
    <path id="Фигура_1_копия-2" data-name="Фигура 1 копия" class="cls-3" d="M232.812,135.648a4.333,4.333,0,0,0,4.709-3.138c0.408-1.955-2.669-6.639-2.261-8.595-0.408,1.956-5.117,5.094-5.525,7.049A4.231,4.231,0,0,0,232.812,135.648Z"/>
  </g>
  <g id="Группа_1_копия_2" data-name="Группа 1 копия 2">
    <path id="Фигура_1-3" data-name="Фигура 1" class="cls-2" d="M149.137,150.11a6.76,6.76,0,0,0,.574-8.782c-2.022-2.353-10.683-2.98-12.705-5.332,2.022,2.352,1.448,11.135,3.469,13.487A6.537,6.537,0,0,0,149.137,150.11Z"/>
    <path id="Фигура_1_копия-3" data-name="Фигура 1 копия" class="cls-3" d="M148.756,149.62a4.356,4.356,0,0,0,.377-5.657c-1.3-1.514-6.881-1.91-8.182-3.424,1.3,1.514.924,7.17,2.225,8.684A4.212,4.212,0,0,0,148.756,149.62Z"/>
  </g>
  <path id="Многоугольник_2" data-name="Многоугольник 2" class="cls-4" d="M156.481,155.953l71.777-11.4,32.993,64.929-51.387,51.527-64.752-33.083Z"/>
  <path id="Прямоугольник_1" data-name="Прямоугольник 1" class="cls-5" d="M149.209,340.373L338.4,150.663l10.587,10.615L159.795,350.989Z"/>
</svg>
