<svg id="Группа_3" data-name="Группа 3" xmlns="http://www.w3.org/2000/svg" width="250" height="250" viewBox="0 0 500 500">
  <defs>
    <style>
      .cls-1 {
        fill: #fe6d39;
      }

      .cls-1, .cls-2, .cls-3, .cls-4 {
        fill-rule: evenodd;
      }

      .cls-2 {
        fill: red;
      }

      .cls-3 {
        fill: #d9d9d9;
      }

      .cls-5 {
        fill: #0600ff;
      }
    </style>
  </defs>
  <g id="Группа_1_копия_3" data-name="Группа 1 копия 3">
    <path id="Фигура_1" data-name="Фигура 1" class="cls-1" d="M102.126,348.9a6.645,6.645,0,0,0,6.275-6.081c0.048-3.089-6.033-9.363-5.984-12.452-0.049,3.089-6.323,9.169-6.372,12.258A6.644,6.644,0,0,0,102.126,348.9Z"/>
    <path id="Фигура_1_копия" data-name="Фигура 1 копия" class="cls-2" d="M102.167,348.282a4.281,4.281,0,0,0,4.047-3.912c0.031-1.987-3.891-6.024-3.86-8.011-0.031,1.987-4.078,5.9-4.11,7.886A4.281,4.281,0,0,0,102.167,348.282Z"/>
  </g>
  <g id="Группа_1_копия_4" data-name="Группа 1 копия 4">
    <path id="Фигура_1-2" data-name="Фигура 1" class="cls-1" d="M151.007,400.91c-0.049,3,3.068,6.038,6.235,6.085s9.6-5.85,12.768-5.8c-3.167-.047-9.4-6.131-12.569-6.178S151.057,397.915,151.007,400.91Z"/>
    <path id="Фигура_1_копия-2" data-name="Фигура 1 копия" class="cls-2" d="M151.64,400.95a4.265,4.265,0,0,0,4.011,3.924c2.038,0.03,6.177-3.773,8.214-3.743-2.037-.03-6.048-3.955-8.086-3.985A4.284,4.284,0,0,0,151.64,400.95Z"/>
  </g>
  <g id="Группа_1_копия_5" data-name="Группа 1 копия 5">
    <path id="Фигура_1-3" data-name="Фигура 1" class="cls-1" d="M397.9,152.385a6.662,6.662,0,0,0-6.277,6.111c-0.048,3.1,6.035,9.409,5.987,12.513,0.048-3.1,6.325-9.214,6.374-12.318A6.664,6.664,0,0,0,397.9,152.385Z"/>
    <path id="Фигура_1_копия-3" data-name="Фигура 1 копия" class="cls-2" d="M397.862,153.006a4.29,4.29,0,0,0-4.049,3.931c-0.031,2,3.893,6.053,3.862,8.05,0.031-2,4.08-5.928,4.111-7.925A4.292,4.292,0,0,0,397.862,153.006Z"/>
  </g>
  <g id="Группа_1_копия_6" data-name="Группа 1 копия 6">
    <path id="Фигура_1-4" data-name="Фигура 1" class="cls-1" d="M349,100.12c0.049-3.01-3.069-6.068-6.238-6.115s-9.6,5.878-12.773,5.831c3.169,0.047,9.406,6.162,12.574,6.209S348.951,103.13,349,100.12Z"/>
    <path id="Фигура_1_копия-4" data-name="Фигура 1 копия" class="cls-2" d="M348.367,100.08a4.276,4.276,0,0,0-4.012-3.944c-2.038-.03-6.179,3.792-8.217,3.761,2.038,0.03,6.05,3.974,8.089,4A4.293,4.293,0,0,0,348.367,100.08Z"/>
  </g>
  <path id="Прямоугольник_1_копия" data-name="Прямоугольник 1 копия" class="cls-3" d="M148.918,341.476L338.476,151.918l10.606,10.606L159.524,352.082Z"/>
  <circle id="Эллипс_2" data-name="Эллипс 2" cx="149" cy="351" r="19"/>
  <circle id="Эллипс_2_копия" data-name="Эллипс 2 копия" cx="349" cy="152" r="19"/>
  <circle id="Эллипс_3" data-name="Эллипс 3" cx="400" cy="101" r="50"/>
  <circle id="Эллипс_3_копия" data-name="Эллипс 3 копия" cx="101" cy="401" r="50"/>
  <path id="Прямоугольник_3" data-name="Прямоугольник 3" class="cls-4" d="M113.551,381.085l35.355-35.355,6.364,6.364-35.355,35.355Z"/>
  <path id="Прямоугольник_3_копия" data-name="Прямоугольник 3 копия" class="cls-4" d="M347.551,147.085l35.355-35.355,6.364,6.364-35.355,35.355Z"/>
  <circle id="Эллипс_4" data-name="Эллипс 4" class="cls-5" cx="101" cy="402" r="40"/>
  <circle id="Эллипс_4_копия" data-name="Эллипс 4 копия" class="cls-5" cx="400" cy="101" r="40"/>
</svg>
